/* XPM */
static char * c_exit_xpm[] = {
"48 48 19 1",
" 	c #6FA430",
".	c #1B1617",
"+	c #0B0A0A",
"@	c #9D7146",
"#	c #724B2C",
"$	c #BEBAB5",
"%	c #452A1B",
"&	c #BCBCBC",
"*	c #8E6740",
"=	c #A69E9A",
"-	c #807B7A",
";	c #050403",
">	c #F8E398",
",	c #E1BF89",
"'	c #595757",
")	c #7A5735",
"!	c #323232",
"~	c #1B1818",
"{	c #FEFEFE",
"                                                ",
"                                                ",
"                                                ",
"         .........++++++++++++++++++...         ",
"         .........++++++++++++++++++...         ",
"         .........++++++++++++++++++...         ",
"   ......@@@###@@@...$$$$$$...@@@%%%@@@......   ",
"   ......@@@###@@@...$$$$$$...@@@%%%@@@......   ",
"   ......@@@###@@@...$$$$$$...@@@%%%@@@......   ",
"&..$$$...@@@%%%***...$$$===...***###@@@...$$$...",
"...$$$...@@@%%%***...$$$===...***###@@@...$$$...",
"...$$$...@@@%%%***...$$$===...***###@@@...$$$...",
"+++$$$+++***%%%***...$$$---...***%%%***+++===...",
"+++$$$+++***%%%***...$$$---...***%%%***+++===...",
"+++$$$+++***%%%***...$$$---...***%%%***+++===...",
"+++===+++.........+++$$$===+++++++++++++++---+++",
"+++===+++.........+++$$$===+++++++++++++++---+++",
"+++===+++.........+++$$$===+++++++++++++++---+++",
"+++======---======$$$++++++===---------------+++",
"+++======---======$$$++++++===---------------+++",
"+++======---======$$$++++++===---------------+++",
"...===+++++++++$$$;;;>>>,,,+++===+++++++++---+++",
"...===+++++++++$$$;;;>>>,,,+++===+++++++++---+++",
"...===+++++++++$$$;;;>>>,,,+++===+++++++++---+++",
"...'''+++***###+++===++++++===+++%%%***+++---+++",
"...'''+++***###+++===++++++===+++%%%***+++---+++",
"...'''+++***###+++===++++++===+++%%%***+++---+++",
"...'''+++***%%%***+++======+++***###***+++'''+++",
"...---+++***%%%***+++======+++***###***+++'''+++",
"...---+++***%%%***+++======+++***###***+++'''+++",
"+++---+++)))%%%***###++++++%%%***%%%)))+++'''+++",
"+++'''+++)))%%%***###++++++%%%***%%%)))+++'''+++",
"+++'''+++)))%%%***###++++++%%%***%%%)))+++'''+++",
"+++'''...)))###)))%%%))))))###)))%%%)))+++'''+++",
"+++'''...)))###)))%%%))))))###)))%%%)))+++'''+++",
"+++'''...)))###)))%%%))))))###)))%%%)))+++'''+++",
"...!!!....................................!!!+++",
"...!!!....................................!!!+++",
"...!!!....................................!!!+++",
"......!!!''''''''!!!!!!!!!'''''!!!'''''!!!...+++",
"......!!!''''''''!!!!!!!!!'''''!!!'''''!!!...+++",
"......!!!''''''''!!!!!!!!!'''''!!!'''''!!!...+++",
"..........................................++++++",
"..........................................++++++",
".....~~~~.................................++++++",
"                                                ",
"                                                ",
"                                                "};