/* XPM */
static char * enemy_xpm[] = {
"48 48 3 1",
" 	c #6FA430",
".	c #612721",
"+	c #2D1B1E",
"                                                ",
"                                                ",
"                                                ",
"                                    ..          ",
"                                    ..          ",
"               ..                               ",
"               ..       .......       ..        ",
"             ..         .......       ....      ",
"            ....     ..............   ....      ",
"            ....     ..............   ..        ",
"            ..       ..............             ",
"                     ..............             ",
"                   ......++++++.....            ",
"                   ......++++++........         ",
"              .......++++++++++........         ",
"              .......++++++++++++++.......      ",
"              .......++++++++++++++.......      ",
"              .......++++++++++++++.......      ",
"            ......+++++++++++++++++.......      ",
"            ......++++++++++++++++++++......    ",
"          ........++++++++++++++++++++......    ",
"          ........++++++++++++++++++++......    ",
"        ......++++++++++++++++++++++++......    ",
"        ......++++++++++++++++++++++++......    ",
"        ......++++++++++++++++++++++++......    ",
"        ......+++++++++++++++++++++.........    ",
"      ......+++++++++++++++++++++++.........    ",
"      ......+++++++++++++++++++++++.......      ",
"      ......+++++++++++++++++++++++.......      ",
"      ......+++++++++++++++++++......           ",
"      ......+++++++++++++++++++......           ",
"        ......+++++++++++++++++....             ",
"        ......++++++++++++++.......  ..         ",
"        ......++++++++++++++.......  ....       ",
"        ......++++++++++++++.......   ...       ",
"            ......++++++...........   ..        ",
"            ......++++++.......                 ",
"        ..  ......++++++.......                 ",
"        ... ......++++++....                    ",
"       .... ................                    ",
"       ..   ................                    ",
"              ..............                    ",
"              ..............                    ",
"              ..........                        ",
"              ..........      ..                ",
"                              ..                ",
"                                                ",
"                                                "};
