/* XPM */
static char * enemy_xpm[] = {
"48 48 7 1",
" 	c #6FA430",
".	c #000000",
"+	c #CBDBFC",
"@	c #9BADB7",
"#	c #696A6A",
"$	c #222034",
"%	c #99E550",
"                                                ",
"                                                ",
"                                                ",
"                                                ",
"                                                ",
"                                                ",
"                                                ",
"          . ................                    ",
"         .+.++++++++++++++++.                   ",
"        .+++.++++++++++++++++.                  ",
"         .+++..................                 ",
"        .+.+.@@@@@@@@@@@@@@@@@@.                ",
"        .++.@@@@@@@@@@@@@@@@@@@@.               ",
"        .++.@@@@@@@@@@@@@@@@@@@@.               ",
"        .++.@@@@@@@@@@@@@@@@@@@@.               ",
"        .++.@@@@@@..@@@..@@@@@@@.               ",
"        .++.@@@@@.##.@.##.@@@@@@.               ",
"        .++.@@@@@.##.@.##.@@@@@@.               ",
"        .++.@@@@@.##.@.##.@@@@@@.               ",
"        .++.@@@@@.#+.@.#+.@@@@@@.               ",
"        .++.@@@@@.#+.@.#+.@@@@@@.               ",
"        .++.@@@@@.##.@.##.@@@@@@.               ",
"        .++.@@@@@.##.@.##.@@@@@@.               ",
"        .++.@@@@@@..@@@..@@@@@@@.               ",
"        .++.@@@@@@@@@@@@@@@@@@@@.               ",
"         .+.@@@@@@@@@.@@@@@@@@@@.               ",
"          ..@@@@@@@@@@@@@@@@@@@@.               ",
"           .@@@@@@....@@@@@@@@@@.               ",
"            .@@@@@@@@@@@@@@@@@@.                ",
"             ......$...........                 ",
"                   .+.                          ",
"                   .+.                          ",
"                    .+.                         ",
"                     .+.                        ",
"                .....+.+......                  ",
"              ...@@@@.+.@%@.@.....              ",
"             .  .@%@.@.@@.@%@.    .             ",
"             .  .@@@@@@@@@@@@.   .+.            ",
"            .+. ..............    .             ",
"             .      .     .                     ",
"                    .     .                     ",
"                     .     .                    ",
"                     .    .                     ",
"                    .+..  .                     ",
"                    .... .+..                   ",
"                         ....                   ",
"                                                ",
"                                                "};
