/* XPM */
static char * enemy2_xpm[] = {
"48 48 6 1",
" 	c #6FA430",
".	c #000000",
"+	c #CBDBFC",
"@	c #9BADB7",
"#	c #696A6A",
"$	c #222034",
"                                                ",
"                                                ",
"                                                ",
"                                                ",
"                                                ",
"                                                ",
"                                                ",
"                                                ",
"            . ................                  ",
"           .+.++++++++++++++++.                 ",
"          .+++.++++++++++++++++.                ",
"           .+++..................               ",
"          .+.+.@@@@@@@@@@@@@@@@@@.              ",
"          .++.@@@@@@@@@@@@@@@@@@@@.             ",
"          .++.@@@@@@@@@@@@@@@@@@@@.             ",
"          .++.@@@@@@@@@@@@@@@@@@@@.             ",
"          .++.@@@@@@..@@@..@@@@@@@.             ",
"          .++.@@@@@.##.@.##.@@@@@@.             ",
"          .++.@@@@@.##.@.##.@@@@@@.             ",
"          .++.@@@@@.##.@.##.@@@@@@.             ",
"          .++.@@@@@.##.@.##.@@@@@@.             ",
"          .++.@@@@@.#+.@.#+.@@@@@@.             ",
"          .++.@@@@@.#+.@.#+.@@@@@@.             ",
"          .++.@@@@@.##.@.##.@@@@@@.             ",
"          .++.@@@@@@..@@@..@@@@@@@.             ",
"          .++.@@@@@@@@@@@@@@@@@@@@.             ",
"           .+.@@@@@@@@@.@@@@@@@@@@.             ",
"            ..@@@@@@@@@@@@@@@@@@@@.             ",
"             .@@@@@@@....@@@@@@@@@.             ",
"              .@@@@@@@@@@@@@@@@@@.              ",
"               ......$...........               ",
"                     .+.                        ",
"                    .+.                         ",
"                     .+.                        ",
"                .....+.+......                  ",
"             ....@@@@.+.@.@.@...                ",
"            .   .@.@.@.@@.@.@.  .               ",
"            .   .@@@@@@@@@@@@.  .               ",
"           .+.  .............. .+.              ",
"            .       .     .     .               ",
"                    .     .                     ",
"                     .     .                    ",
"                    .     .                     ",
"                    .     .                     ",
"                   .+..  .+..                   ",
"                   ....  ....                   ",
"                                                ",
"                                                "};
