/* XPM */
static char * floor_xpm[] = {
"48 48 215 2",
"  	c #6FA430",
". 	c #70A530",
"+ 	c #699F33",
"@ 	c #609834",
"# 	c #679E2C",
"$ 	c #6AA12D",
"% 	c #6BA12E",
"& 	c #5F9737",
"* 	c #428439",
"= 	c #589525",
"- 	c #6EA330",
"; 	c #699F2D",
"> 	c #6DA32F",
", 	c #539126",
"' 	c #5E9827",
") 	c #6EA430",
"! 	c #569323",
"~ 	c #5D972B",
"{ 	c #529028",
"] 	c #4C8A3D",
"^ 	c #41852E",
"/ 	c #609A28",
"( 	c #70A430",
"_ 	c #6CA22F",
": 	c #6DA22F",
"< 	c #6EA32F",
"[ 	c #589239",
"} 	c #3A8136",
"| 	c #599525",
"1 	c #6CA22E",
"2 	c #689F30",
"3 	c #689F2D",
"4 	c #559323",
"5 	c #6CA231",
"6 	c #559324",
"7 	c #639B2A",
"8 	c #6DA231",
"9 	c #6AA031",
"0 	c #699F30",
"a 	c #519021",
"b 	c #6AA02D",
"c 	c #6EA331",
"d 	c #4D8A3C",
"e 	c #45882F",
"f 	c #629B28",
"g 	c #6AA12E",
"h 	c #49883D",
"i 	c #40862A",
"j 	c #629B29",
"k 	c #6EA42F",
"l 	c #689F33",
"m 	c #3E823D",
"n 	c #488A23",
"o 	c #5E9637",
"p 	c #679D34",
"q 	c #659C30",
"r 	c #669E2C",
"s 	c #669C34",
"t 	c #669D2F",
"u 	c #649B34",
"v 	c #679E2D",
"w 	c #669D34",
"x 	c #6AA032",
"y 	c #46863B",
"z 	c #468A21",
"A 	c #69A02D",
"B 	c #619937",
"C 	c #418437",
"D 	c #4F8F20",
"E 	c #619A29",
"F 	c #5B9626",
"G 	c #689F2C",
"H 	c #6CA132",
"I 	c #5C9537",
"J 	c #629A2C",
"K 	c #639C29",
"L 	c #689E34",
"M 	c #5B9535",
"N 	c #659D2B",
"O 	c #599339",
"P 	c #42862E",
"Q 	c #5A9624",
"R 	c #5C9535",
"S 	c #4F8C3B",
"T 	c #438825",
"U 	c #649C2A",
"V 	c #6FA42F",
"W 	c #5C9538",
"X 	c #45882D",
"Y 	c #5A9524",
"Z 	c #6DA32E",
"` 	c #5F9928",
" .	c #599431",
"..	c #679F2B",
"+.	c #69A02C",
"@.	c #5A9339",
"#.	c #5C962D",
"$.	c #6DA331",
"%.	c #589238",
"&.	c #468924",
"*.	c #5D9639",
"=.	c #549032",
"-.	c #659D2A",
";.	c #6AA033",
">.	c #528E36",
",.	c #498C1F",
"'.	c #669E2A",
").	c #659B36",
"!.	c #4C8B31",
"~.	c #529121",
"{.	c #508C3B",
"].	c #54912B",
"^.	c #6AA02C",
"/.	c #689F2B",
"(.	c #4C8A3A",
"_.	c #599528",
":.	c #609837",
"<.	c #4A8B28",
"[.	c #5E9826",
"}.	c #4C8B36",
"|.	c #609928",
"1.	c #6DA22E",
"2.	c #649C2B",
"3.	c #5B9436",
"4.	c #488B21",
"5.	c #649B35",
"6.	c #4D8D27",
"7.	c #5D9827",
"8.	c #528E3B",
"9.	c #4C8B2F",
"0.	c #6BA033",
"a.	c #599432",
"b.	c #4D8E1F",
"c.	c #699F31",
"d.	c #49883C",
"e.	c #529029",
"f.	c #4F8C3C",
"g.	c #48892F",
"h.	c #639B29",
"i.	c #4F8F1F",
"j.	c #639A36",
"k.	c #42843A",
"l.	c #569325",
"m.	c #659C34",
"n.	c #4E8E24",
"o.	c #659C32",
"p.	c #549223",
"q.	c #6BA132",
"r.	c #689E32",
"s.	c #579424",
"t.	c #559223",
"u.	c #69A02E",
"v.	c #46882C",
"w.	c #689E33",
"x.	c #43843E",
"y.	c #3D8237",
"z.	c #589524",
"A.	c #61992D",
"B.	c #539122",
"C.	c #6DA230",
"D.	c #6BA032",
"E.	c #5E9638",
"F.	c #3A8039",
"G.	c #529122",
"H.	c #45853E",
"I.	c #6BA131",
"J.	c #679D32",
"K.	c #659C35",
"L.	c #5B9625",
"M.	c #408434",
"N.	c #539121",
"O.	c #5A9625",
"P.	c #649D2A",
"Q.	c #5D9826",
"R.	c #669D35",
"S.	c #5C9534",
"T.	c #669E2B",
"U.	c #6BA12D",
"V.	c #5D9726",
"W.	c #4D8A3B",
"X.	c #458923",
"Y.	c #679F2C",
"Z.	c #679D35",
"`.	c #4B8A36",
" +	c #4C8D1F",
".+	c #6AA030",
"++	c #528E38",
"@+	c #5E9828",
"#+	c #6FA431",
"$+	c #5B9438",
"%+	c #478926",
"&+	c #619A28",
"*+	c #669D2B",
"=+	c #538E3B",
"-+	c #52902D",
";+	c #679E2B",
">+	c #5A9525",
",+	c #569230",
"'+	c #508F20",
")+	c #589425",
"!+	c #6BA133",
"~+	c #689E31",
"{+	c #55903B",
"]+	c #3F8335",
"^+	c #5C9726",
"/+	c #6CA230",
"(+	c #639B2C",
"_+	c #679E32",
":+	c #5F9738",
"<+	c #3B8138",
"[+	c #649B33",
"}+	c #4B893C",
"|+	c #438726",
"1+	c #5D9637",
"2+	c #60992D",
"                                                                                                ",
"                                                                                                ",
"                                                                                                ",
"                                                                                                ",
"                                                                                                ",
"                                                                                                ",
"                                                                                                ",
"                                        .                                                       ",
"                                      + @ #                                                     ",
"                                $ % . & * = -     ; >       % $                                 ",
"                              + , ' . ) - -     > ! ;     . ~ { %                               ",
"                              ] ^ / (     - _     > ) : < . [ } |       1 )                     ",
"                              + 2 _       3 4 >     5 6 7 . 8 9 :     0 a b   8 c               ",
"                        -     d e f (     : g     c h i j (       k l m n b   d o .             ",
"                      _ ! %   p q %     r | )       s t 1       r | 5 u v <   w x               ",
"                    + y z A     (   . B C D <           . E f B C D < (     F G .               ",
"                    H I J > (   . K K L M N             O P Q L R N     8 S T U (               ",
"                      . . V / A W X Y . . . Z ` >       &  ...+.j       c @.#.$                 ",
"                        $.%.&.U *.=.-.    ;.>.,.%     . '.+.).!.~.  (   V K 1                   ",
"                        8 {.].^./.b (     L (._.: (   :.<.[.:.}.|.1.2.5 3.4.# .                 ",
"                              5.6.7..           ) # _ 8.9.U ( ( 0.a.b.c.d.e.$ G %               ",
"                      k 3 <   f.g.h..   : A     : i.#         . j.k.l.>   - m.n.E (             ",
"                    c o.p.%   c -   q.r.j s.-   > t.3           : u.-     c h v.U (             ",
"                    w.x.c.    _ < . @.y.z.>       >           $.A.B.<       8 C.-               ",
"                    - D.)   5 6 7 . 8 9 :   ) 5       > -   . E.F.G.<                           ",
"                          c h i j (       k l H.D.    | U (   I.J.%                             ",
"                            s t 1       r | 5 K.c     A 1     2.L.                              ",
"                                . E f B C D < (   V F G ` U E.M.N.      < O.A                   ",
"                                O P Q L R N     8 S T P.! Q.R.S.T.U.V.9 W.X.# .                 ",
"                    (           &  ...+.j       c @.#.U.N Y.. . Z.`. +.+[ ~ 1 j G               ",
"                  % j -       . '.+.).!.~.  (   V K 1           p ++@+< . #+$+%+&+.             ",
"                  # b.:       :.<.[.:.}.|.1.2.5 3.4.# .       ( 1 *+      c =+-+;+              ",
"                  A >+< ) # _ 8.9.U ( ( 0.a.b.c.d.e.$ G %     + ,+'+<                           ",
"                        : i.#         . j.k.l.>   - m.n.E . . :.* )+-                           ",
"                        > t.3           : u.-     c h v.U !+~+% - -                             ",
"                          >           $.A.B.<       8 C.V {+]+^+- _                             ",
"                              > -   . E.F.G.<             5 9 /+(+p.-                           ",
"                              | U (   H _+%         -       . :+<+a <                           ",
"                              A 1                 - = #       D.[+A                             ",
"                                                8 }+|+U (       (                               ",
"                                        3 7.)   c 1+2+%                                         ",
"                                        b j )     . .                                           ",
"                                          (                                                     ",
"                                                                                                ",
"                                                                                                ",
"                                                                                                ",
"                                                                                                ",
"                                                                                                "};
