/* XPM */
static char * mushleft_xpm[] = {
"48 48 11 1",
" 	c #6FA430",
".	c #751C1C",
"+	c #D23232",
"@	c #FCF2DE",
"#	c #A72828",
"$	c #D0C8B7",
"%	c #7A705B",
"&	c #BDAE8D",
"*	c #FFFBF4",
"=	c #000000",
"-	c #EEDBB1",
"                                                ",
"                                                ",
"                                                ",
"                                                ",
"                    .........                   ",
"                 ...+++++++++...                ",
"              ...@++++++++++++++...             ",
"            ..@@@+++++++++++++++@@@..           ",
"          ..++++++++++++++++++++@@@@@..         ",
"         .++++++++++@@@+++++++++@@@@@++.        ",
"        .++++++++++@@@@@+++++++++@@@++++.       ",
"        .@+++++++++@@@@@++++++++++++++++.       ",
"       .@@@++++++++@@@@@+++++++++++++++++.      ",
"       .@@@+++++++++@@@++++++++++++++++++.      ",
"      .@@@@+++++++++++++++++++++++++++++++.     ",
"      .@@@++++++++++++++++++++++++++++++++.     ",
"      .+++++++++++++++++++++++++++++++++++.     ",
"      .+++++++++++++++++++++++++++++++++++.     ",
"      .+++++++++++++++++++@@@+++++++++++++.     ",
"      .++++++++++++++++++@@@@@++++++++@@@+.     ",
"      .#+++@@@+++++++++++@@@@@+++++++@@@@$.     ",
"       .#+@@@@@++++++++++@@@@@+++++++@@@$.      ",
"       .##$@@@@+++++++++++@@@++++++++@@$$.      ",
"        .#$$$$$+++++++++++++++++++####$$.       ",
"         .#$$$#########################.        ",
"          ..#########################..         ",
"            .........................           ",
"              %&&&&&&&&&&&&&&&&&&&%             ",
"              %&*&&&&&&*=&&&&&&&&&%             ",
"              %-=------==---------%             ",
"              %-=------==---------%             ",
"              %----------------%--%             ",
"              %-------------%--%--%             ",
"              %-------------&%%&--%             ",
"              %--------------&&---%             ",
"              %&-----------------&%             ",
"               %&----------------%              ",
"               %%&--------------&%              ",
"                %%&&&&%&------&&%               ",
"                %%%%%%%%&&&&&&%%                ",
"                 %%%%%%%%%%%%%                  ",
"                  %%%%%                         ",
"                                                ",
"                                                ",
"                                                ",
"                                                ",
"                                                ",
"                                                "};
