/* XPM */
static char * mushdown_xpm[] = {
"48 48 25 1",
" 	c #6FA430",
".	c #751C1C",
"+	c #D23232",
"@	c #FCF2DE",
"#	c #D0C8B7",
"$	c #A72828",
"%	c #7A705B",
"&	c #BDAE8D",
"*	c #BAAB8B",
"=	c #BBAC8B",
"-	c #BCAD8B",
";	c #0E0D0C",
">	c #E2DFD8",
",	c #EEDBB1",
"'	c #EDDAB0",
")	c #ECD9B0",
"!	c #E7D4AC",
"~	c #000000",
"{	c #ECDAB0",
"]	c #E9D6AD",
"^	c #3A3529",
"/	c #B9AA8A",
"(	c #E8D5AB",
"_	c #BCAD8C",
":	c #FDFDFD",
"                                                ",
"                                                ",
"                                                ",
"                                                ",
"                   .........                    ",
"                ...+++++++++...                 ",
"             ...++++++++++++++@...              ",
"           ..@@@+++++++++++++++@@@..            ",
"         ..@@@@@++++++++++++++++++++..          ",
"        .++@@@@@+++++++++@@@++++++++++.         ",
"       .++++@@@+++++++++@@@@@++++++++++.        ",
"       .++++++++++++++++@@@@@+++++++++@.        ",
"      .+++++++++++++++++@@@@@++++++++@@@.       ",
"      .++++++++++++++++++@@@+++++++++@@@.       ",
"     .+++++++++++++++++++++++++++++++@@@@.      ",
"     .++++++++++++++++++++++++++++++++@@@.      ",
"     .+++++++++++++++++++++++++++++++++++.      ",
"     .+++++++++++++++++++++++++++++++++++.      ",
"     .+++++++++++++@@@+++++++++++++++++++.      ",
"     .+@@@++++++++@@@@@++++++++++++++++++.      ",
"     .#@@@@+++++++@@@@@+++++++++++@@@+++$.      ",
"      .#@@@+++++++@@@@@++++++++++@@@@@+$.       ",
"      .##@@++++++++@@@+++++++++++@@@@#$$.       ",
"       .##$$$$+++++++++++++++++++#####$.        ",
"        .$$$$$$$$$$$$$$$$$$$$$$$$$###$.         ",
"         ..$$$$$$$$$$$$$$$$$$$$$$$$$..          ",
"           .........................            ",
"             %&&&*&&&&&&&&&&&&&&&%              ",
"             %&&==-;>&&&&&;>&&&&&%              ",
"             %,'),!~~,,,',~~{,,,,%              ",
"             %,,,,]~~,,,',~~',,,,%              ",
"             %,,,,,,,,,,,,,,,,,,,%              ",
"             %,,,,,,,,,^/,,,,,,,,%              ",
"             %,,,,,,,,,/(,,,,,,,,%              ",
"             %,,,,,,,,,,,,,,,,,,,%              ",
"             %&,,,,,,,,,,,,,,,,,&%              ",
"              %,,,,,,,,,,,,,,,,&%               ",
"              %&,,,,,,,,,,,,,,&%%               ",
"               %&&,,,,,,&%&&&&%%                ",
"                %%_&&&&&%%%%%%%%                ",
"                %%%%%%%%%%%%%%%                 ",
"                 %%%%%   %%%%%                  ",
"                                                ",
"                                                ",
"                                                ",
"                                                ",
"                                                ",
"                                                "};
