/* XPM */
static char * o_exit_xpm[] = {
"48 48 673 2",
"  	c #6FA430",
". 	c #68442B",
"+ 	c #69442B",
"@ 	c #66432A",
"# 	c #67432A",
"$ 	c #6E4D35",
"% 	c #9E9382",
"& 	c #968976",
"* 	c #66422A",
"= 	c #654129",
"- 	c #644129",
"; 	c #634029",
"> 	c #634028",
", 	c #65422A",
"' 	c #958875",
") 	c #9C9281",
"! 	c #6C4B34",
"~ 	c #6F4F36",
"{ 	c #A09686",
"] 	c #67432B",
"^ 	c #7F6344",
"/ 	c #836849",
"( 	c #886F50",
"_ 	c #8C7453",
": 	c #8C7555",
"< 	c #8D7657",
"[ 	c #8E7859",
"} 	c #8E7959",
"| 	c #8F7959",
"1 	c #8F7958",
"2 	c #8E7958",
"3 	c #8D7758",
"4 	c #8A7353",
"5 	c #897252",
"6 	c #887151",
"7 	c #866E4E",
"8 	c #836A4A",
"9 	c #826949",
"0 	c #816747",
"a 	c #9F9585",
"b 	c #6D4D36",
"c 	c #6E4E36",
"d 	c #A49989",
"e 	c #A59A8A",
"f 	c #A4998A",
"g 	c #67422A",
"h 	c #806546",
"i 	c #88704F",
"j 	c #8D7656",
"k 	c #917C5D",
"l 	c #927D5E",
"m 	c #937F60",
"n 	c #5D3921",
"o 	c #603C24",
"p 	c #5F3B23",
"q 	c #5E3922",
"r 	c #5C3720",
"s 	c #8F7A5B",
"t 	c #8C7556",
"u 	c #886F4F",
"v 	c #856C4D",
"w 	c #A39889",
"x 	c #A39888",
"y 	c #6D4D35",
"z 	c #572D17",
"A 	c #82705D",
"B 	c #7A6752",
"C 	c #7A6751",
"D 	c #6D4B30",
"E 	c #6F4E31",
"F 	c #715034",
"G 	c #745538",
"H 	c #76573A",
"I 	c #542B15",
"J 	c #8F816F",
"K 	c #795F4C",
"L 	c #8C7C6B",
"M 	c #8D7E6C",
"N 	c #542C16",
"O 	c #755639",
"P 	c #725336",
"Q 	c #6D4C30",
"R 	c #643F28",
"S 	c #7A6651",
"T 	c #796651",
"U 	c #826F5C",
"V 	c #572D16",
"W 	c #552C16",
"X 	c #7E6D58",
"Y 	c #76644F",
"Z 	c #77644F",
"` 	c #562C16",
" .	c #552B15",
"..	c #552B16",
"+.	c #948877",
"@.	c #958978",
"#.	c #6D4E39",
"$.	c #928675",
"%.	c #542B16",
"&.	c #77634E",
"*.	c #76634E",
"=.	c #7E6C58",
"-.	c #7C6A58",
";.	c #74614C",
">.	c #75624C",
",.	c #5F3D22",
"'.	c #5F3C22",
").	c #9A8E7E",
"!.	c #9A8E7F",
"~.	c #9A8F80",
"{.	c #9B8F7F",
"].	c #5F3B22",
"^.	c #5E3B21",
"/.	c #5D3920",
"(.	c #5C381F",
"_.	c #75614C",
":.	c #74604C",
"<.	c #522A14",
"[.	c #7A6956",
"}.	c #735F4A",
"|.	c #73604A",
"1.	c #5E3C22",
"2.	c #76634F",
"3.	c #776551",
"4.	c #786551",
"5.	c #776550",
"6.	c #532B15",
"7.	c #5C3A21",
"8.	c #5D3B20",
"9.	c #5D3B22",
"0.	c #5C391F",
"a.	c #7B6956",
"b.	c #532A15",
"c.	c #512914",
"d.	c #796754",
"e.	c #715C48",
"f.	c #715E48",
"g.	c #522A15",
"h.	c #5F3F23",
"i.	c #614026",
"j.	c #634126",
"k.	c #634228",
"l.	c #644329",
"m.	c #634428",
"n.	c #634328",
"o.	c #614126",
"p.	c #5F4024",
"q.	c #5F3E23",
"r.	c #5D3C22",
"s.	c #715D48",
"t.	c #7A6754",
"u.	c #522914",
"v.	c #502814",
"w.	c #766451",
"x.	c #6E5B45",
"y.	c #6F5C46",
"z.	c #603D24",
"A.	c #613F26",
"B.	c #624227",
"C.	c #624327",
"D.	c #624127",
"E.	c #614226",
"F.	c #604126",
"G.	c #604025",
"H.	c #5F3F24",
"I.	c #5E3E23",
"J.	c #5E3D23",
"K.	c #5D3B21",
"L.	c #5C3B20",
"M.	c #512814",
"N.	c #502813",
"O.	c #74624F",
"P.	c #6D5945",
"Q.	c #6D5A45",
"R.	c #5F3C23",
"S.	c #603F25",
"T.	c #5F3E24",
"U.	c #5E3D24",
"V.	c #5D3C23",
"W.	c #4F2713",
"X.	c #73614D",
"Y.	c #6C5742",
"Z.	c #6C5843",
"`.	c #624428",
" +	c #634529",
".+	c #64462A",
"++	c #65472B",
"@+	c #65482C",
"#+	c #66482C",
"$+	c #65472C",
"%+	c #66482D",
"&+	c #65462B",
"*+	c #6B5742",
"=+	c #6B5642",
"-+	c #73604D",
";+	c #6A5641",
">+	c #502713",
",+	c #604125",
"'+	c #644529",
")+	c #65452A",
"!+	c #66482A",
"~+	c #66492B",
"{+	c #66492C",
"]+	c #664A2C",
"^+	c #674A2D",
"/+	c #67492D",
"(+	c #67492E",
"_+	c #674A2E",
":+	c #66492D",
"<+	c #67492C",
"[+	c #614227",
"}+	c #604127",
"|+	c #725F4C",
"1+	c #695540",
"2+	c #695440",
"3+	c #65482B",
"4+	c #664A2D",
"5+	c #684A2E",
"6+	c #674B2C",
"7+	c #684B2D",
"8+	c #694B2F",
"9+	c #684B2F",
"0+	c #684B2E",
"a+	c #604227",
"b+	c #705D49",
"c+	c #68533F",
"d+	c #67523E",
"e+	c #65492B",
"f+	c #694C2E",
"g+	c #684C2E",
"h+	c #6A4D2F",
"i+	c #694D2E",
"j+	c #694C2F",
"k+	c #6A4D30",
"l+	c #694C30",
"m+	c #684C2F",
"n+	c #614228",
"o+	c #6F5B47",
"p+	c #66513D",
"q+	c #66503C",
"r+	c #715637",
"s+	c #725738",
"t+	c #715737",
"u+	c #705637",
"v+	c #725737",
"w+	c #725838",
"x+	c #735839",
"y+	c #745838",
"z+	c #735738",
"A+	c #735838",
"B+	c #725837",
"C+	c #715636",
"D+	c #715536",
"E+	c #6F5436",
"F+	c #6F5335",
"G+	c #6B4E31",
"H+	c #6B4E30",
"I+	c #6C5743",
"J+	c #654E3A",
"K+	c #694B2E",
"L+	c #735939",
"M+	c #745A39",
"N+	c #745A3A",
"O+	c #745939",
"P+	c #745938",
"Q+	c #745839",
"R+	c #735737",
"S+	c #725536",
"T+	c #6D5032",
"U+	c #6C4F31",
"V+	c #6A5541",
"W+	c #654D39",
"X+	c #644D39",
"Y+	c #755A3A",
"Z+	c #755B3B",
"`+	c #765C3B",
" @	c #765B3B",
".@	c #755B3A",
"+@	c #755A39",
"@@	c #6E5133",
"#@	c #6C5032",
"$@	c #654E39",
"%@	c #664F3B",
"&@	c #5F4430",
"*@	c #5F4531",
"=@	c #765C3C",
"-@	c #735837",
";@	c #6F5333",
">@	c #6E5032",
",@	c #604733",
"'@	c #5F4632",
")@	c #5C3925",
"!@	c #61402A",
"~@	c #5D3A25",
"{@	c #55301C",
"]@	c #6E5334",
"^@	c #745A3B",
"/@	c #745B3B",
"(@	c #755C3C",
"_@	c #775E3D",
":@	c #775F3F",
"<@	c #785F3F",
"[@	c #79603F",
"}@	c #795F3E",
"|@	c #795F3F",
"1@	c #796040",
"2@	c #7A6040",
"3@	c #7A6141",
"4@	c #775C3C",
"5@	c #725636",
"6@	c #5B3824",
"7@	c #8F8270",
"8@	c #8B7C6A",
"9@	c #532D19",
"0@	c #5B3920",
"a@	c #5B3A21",
"b@	c #604024",
"c@	c #644428",
"d@	c #654529",
"e@	c #654629",
"f@	c #644528",
"g@	c #644328",
"h@	c #634327",
"i@	c #634227",
"j@	c #613F25",
"k@	c #908371",
"l@	c #562F1A",
"m@	c #6C5943",
"n@	c #6B5843",
"o@	c #6C5944",
"p@	c #5E3B25",
"q@	c #56301A",
"r@	c #5B3721",
"s@	c #5B3620",
"t@	c #58331C",
"u@	c #705538",
"v@	c #72573A",
"w@	c #74593B",
"x@	c #765B3C",
"y@	c #765B3D",
"z@	c #765B3E",
"A@	c #775C3E",
"B@	c #795E3F",
"C@	c #795F40",
"D@	c #7B6141",
"E@	c #7B6242",
"F@	c #7C6244",
"G@	c #7B6143",
"H@	c #785E40",
"I@	c #775D3F",
"J@	c #765C3E",
"K@	c #755B3D",
"L@	c #705436",
"M@	c #715437",
"N@	c #5F3C26",
"O@	c #5F3C25",
"P@	c #5F3B25",
"Q@	c #552F1A",
"R@	c #847562",
"S@	c #786853",
"T@	c #786752",
"U@	c #532C15",
"V@	c #66482B",
"W@	c #65472A",
"X@	c #66472B",
"Y@	c #65482A",
"Z@	c #67492B",
"`@	c #67482A",
" #	c #67482B",
".#	c #837461",
"+#	c #552F19",
"@#	c #57301B",
"##	c #867865",
"$#	c #7B6A55",
"%#	c #7A6A55",
"&#	c #64472B",
"*#	c #64472A",
"=#	c #644729",
"-#	c #644629",
";#	c #634629",
">#	c #654729",
",#	c #59351E",
"'#	c #8C7E6C",
")#	c #82725E",
"!#	c #81715D",
"~#	c #552E16",
"{#	c #644429",
"]#	c #634528",
"^#	c #634628",
"/#	c #644628",
"(#	c #542D16",
"_#	c #80705D",
":#	c #81725E",
"<#	c #8B7E6C",
"[#	c #58341E",
"}#	c #5C3822",
"|#	c #867663",
"1#	c #857663",
"2#	c #563018",
"3#	c #5E3E24",
"4#	c #5D3D24",
"5#	c #5D3D23",
"6#	c #5C3C23",
"7#	c #5C3C22",
"8#	c #552F18",
"9#	c #857562",
"0#	c #8F8271",
"a#	c #613D28",
"b#	c #938776",
"c#	c #897A66",
"d#	c #887B68",
"e#	c #58331B",
"f#	c #5C3B22",
"g#	c #57321B",
"h#	c #877A67",
"i#	c #887965",
"j#	c #603D27",
"k#	c #63412B",
"l#	c #938877",
"m#	c #8C7D6B",
"n#	c #8B7E6B",
"o#	c #5B361E",
"p#	c #5F3E25",
"q#	c #5B3B22",
"r#	c #5A341D",
"s#	c #8A7D6A",
"t#	c #62402B",
"u#	c #64422C",
"v#	c #968979",
"w#	c #8E806E",
"x#	c #5B3B21",
"y#	c #5A3921",
"z#	c #5C3921",
"A#	c #5B3921",
"B#	c #5B361F",
"C#	c #8D806D",
"D#	c #8E806F",
"E#	c #958979",
"F#	c #64412C",
"G#	c #66442E",
"H#	c #998E7C",
"I#	c #908370",
"J#	c #59361E",
"K#	c #59351D",
"L#	c #58351D",
"M#	c #57341C",
"N#	c #56341C",
"O#	c #58341C",
"P#	c #57351C",
"Q#	c #57341B",
"R#	c #57331B",
"S#	c #56321A",
"T#	c #56331B",
"U#	c #56321B",
"V#	c #56311A",
"W#	c #57321A",
"X#	c #5C3820",
"Y#	c #988D7C",
"Z#	c #65442E",
"`#	c #67442F",
" $	c #998E7D",
".$	c #58351C",
"+$	c #57331C",
"@$	c #55321A",
"#$	c #55301A",
"$$	c #563119",
"%$	c #988D7D",
"&$	c #67452F",
"*$	c #9A8E7D",
"=$	c #928574",
"-$	c #928573",
";$	c #603B24",
">$	c #553219",
",$	c #553119",
"'$	c #54311A",
")$	c #55311A",
"!$	c #5F3B24",
"~$	c #918473",
"{$	c #998D7D",
"]$	c #9C9180",
"^$	c #948776",
"/$	c #613D26",
"($	c #5A361E",
"_$	c #59361D",
":$	c #59351C",
"<$	c #56341B",
"[$	c #57331A",
"}$	c #56331A",
"|$	c #543219",
"1$	c #553019",
"2$	c #603D26",
"3$	c #938675",
"4$	c #948675",
"5$	c #9B9080",
"6$	c #684731",
"7$	c #9E9484",
"8$	c #958877",
"9$	c #613E27",
"0$	c #5A3821",
"a$	c #593720",
"b$	c #958776",
"c$	c #9D9384",
"d$	c #674630",
"e$	c #66442F",
"f$	c #A09687",
"g$	c #9D9284",
"h$	c #9C9182",
"i$	c #74583B",
"j$	c #866D4C",
"k$	c #866D4B",
"l$	c #856C4B",
"m$	c #856C4A",
"n$	c #846B4A",
"o$	c #532C14",
"p$	c #836A49",
"q$	c #846B49",
"r$	c #522C14",
"s$	c #603C25",
"t$	c #9B9082",
"u$	c #9C9184",
"v$	c #9F9587",
"w$	c #65432E",
"x$	c #8A7E6D",
"y$	c #7F705F",
"z$	c #7E6F5F",
"A$	c #562E16",
"B$	c #6C5133",
"C$	c #775D3D",
"D$	c #775D3C",
"E$	c #7B6241",
"F$	c #7C6342",
"G$	c #7F6645",
"H$	c #7D6443",
"I$	c #7E6F5E",
"J$	c #7F705E",
"K$	c #8A7E6C",
"L$	c #877B6A",
"M$	c #7D6E5D",
"N$	c #7D6D5D",
"O$	c #66492E",
"P$	c #7D6D5C",
"Q$	c #7D6E5C",
"R$	c #877B69",
"S$	c #5E3A23",
"T$	c #837565",
"U$	c #786755",
"V$	c #786855",
"W$	c #7A6140",
"X$	c #552D15",
"Y$	c #776854",
"Z$	c #776754",
"`$	c #837564",
" %	c #7D6F5E",
".%	c #746451",
"+%	c #756553",
"@%	c #705636",
"#%	c #705536",
"$%	c #705535",
"%%	c #6F5435",
"&%	c #755D3C",
"*%	c #765D3C",
"=%	c #6F5434",
"-%	c #705737",
";%	c #542D15",
">%	c #746452",
",%	c #736450",
"'%	c #7D6F5D",
")%	c #57311B",
"!%	c #786956",
"~%	c #71624E",
"{%	c #70604C",
"]%	c #522C15",
"^%	c #63462A",
"/%	c #6E5435",
"(%	c #755C3B",
"_%	c #785F3E",
":%	c #705435",
"<%	c #512B14",
"[%	c #71624F",
"}%	c #72624F",
"|%	c #552E19",
"1%	c #75644F",
"2%	c #70604B",
"3%	c #71604B",
"4%	c #502A13",
"5%	c #624429",
"6%	c #6E5333",
"7%	c #6E5434",
"8%	c #6C5132",
"9%	c #745B3A",
"0%	c #522B14",
"a%	c #715837",
"b%	c #4F2913",
"c%	c #6E5A45",
"d%	c #74634F",
"e%	c #766450",
"f%	c #6D5944",
"g%	c #502B14",
"h%	c #614125",
"i%	c #6A4F30",
"j%	c #694E2F",
"k%	c #694E2E",
"l%	c #735B3A",
"m%	c #6F5637",
"n%	c #684D2E",
"o%	c #725939",
"p%	c #6B5030",
"q%	c #6B502F",
"r%	c #6C5131",
"s%	c #4F2A14",
"t%	c #6D5A44",
"u%	c #502914",
"v%	c #6D5943",
"w%	c #502A14",
"x%	c #674C2D",
"y%	c #725A3A",
"z%	c #6C5233",
"A%	c #6F5536",
"B%	c #705738",
"C%	c #6A4F2F",
"D%	c #4F2A13",
"E%	c #75634F",
"F%	c #4F2814",
"G%	c #5B3823",
"H%	c #58341F",
"I%	c #57331E",
"J%	c #614328",
"K%	c #62452A",
"L%	c #624529",
"M%	c #63472A",
"N%	c #694D30",
"O%	c #6B5032",
"P%	c #57321C",
"Q%	c #58341D",
"R%	c #857967",
"S%	c #837665",
"T%	c #837664",
"U%	c #857766",
"V%	c #4E2812",
"W%	c #4E2913",
"X%	c #847766",
"Y%	c #827564",
"Z%	c #857866",
"`%	c #6F604E",
" &	c #766754",
".&	c #7A6B58",
"+&	c #7C6E5B",
"@&	c #7E6F5D",
"#&	c #807160",
"$&	c #817462",
"%&	c #857867",
"&&	c #897D6C",
"*&	c #897D6D",
"=&	c #8A7E6E",
"-&	c #887C6B",
";&	c #867A69",
">&	c #847866",
",&	c #7F715F",
"'&	c #7B6D5B",
")&	c #4E2613",
"!&	c #634D39",
"~&	c #634C39",
"{&	c #634C38",
"]&	c #67523F",
"^&	c #65503C",
"/&	c #66513E",
"(&	c #685341",
"_&	c #695442",
":&	c #695543",
"<&	c #6A5644",
"[&	c #6A5745",
"}&	c #685442",
"|&	c #502B15",
"                  . + + .                                             @ # # #                   ",
"                $ % & & . # * = - ; > ; ; ; ; ; ; ; ; ; ; ; ; ; - = , * ' ' ) !                 ",
"                ~ { & & ] ^ / ( _ : < [ } | 1 2 3 : 4 5 5 5 6 7 8 9 0 * ' ' a b                 ",
"                c d e f g h i j | k l m m n o o p q r s s s [ t u v 0 , w d x y                 ",
"                z A B C z D E F F G H H H I J K L M N H H H O P P D Q R S T U V                 ",
"                W X Y Z ` W W W  ...N N I I +.@.#.$.I N I I I %.I W W W &.*.=.W                 ",
"                I -.;.>.W ,.,.,.,.'.,.'.,.I ).!.~.{.I '.'.].].^./.(./.I _.:.-.I                 ",
"                <.[.}.|.I 1.'.1.1.1.'.1.1.I 2.3.4.5.6.7.8.9.^.0.0.0.0.6.|.|.a.b.                ",
"                c.d.e.f.g.h.i.j.k.l.l.m.n.n.b.b.b.g.o.o.o.i.p.q.q.1.r.<.f.s.t.u.                ",
"                v.w.x.y.c.z.A.B.B.n.B.B.B.C.B.D.o.E.o.F.F.G.H.I.J.K.L.c.y.x.3.M.                ",
"                N.O.P.Q.v.R.S.o.o.B.B.o.o.o.G.G.G.G.G.G.S.G.T.U.V.7.7.v.Q.P.O.N.                ",
"                W.X.Y.Z.N.G.`. +.+++@+#+#+@+$+++@+#+#+#+@+@+%+#+&+F.F.N.*+=+X.W.                ",
"                W.-+;+;+>+,+'+)+!+~+{+]+]+^+/+(+(+_+:+:+:+:+/+<+++[+}+W.;+;+-+W.                ",
"                W.|+1+2+W.G..+3+4+5+]+6+6+7+8+8+9+0+5+9+5+5+5+5+#+[+a+W.2+1+|+W.                ",
"                W.b+c+d+W.G.e+^+0+f+g+h+i+j+k+k+k+l+8+8+j+m+m+0+^+m.n+W.d+c+b+W.                ",
"                W.o+p+q+W.0+r+s+t+u+v+w+w+w+x+y+z+A+B+v+v+C+D+E+F+G+H+W.q+p+o+W.                ",
"                W.I+q+J+W.K+w+x+L+L+M+N+N+L+O+M+M+M+M+O+P+y+Q+R+S+T+U+N.J+q+I+W.                ",
"                W.V+W+X+W.K+x+L+N+Y+Z+Z+Z+Z+`+ @.@+@M+N+N+N+N+O+v+@@#@N.$@W+V+W.                ",
"                W.%@&@*@W.h+w+L+L+.@Z+Z+Z+ @`+`+`+=@ @Z+Y+Y+Y+Y+-@;@>@v.,@'@%@W.                ",
"                )@!@~@~@{@]@^@/@(@_@:@<@<@[@}@}@}@}@|@1@2@3@3@1@<@4@5@v.N.>+W.W.                ",
"                6@7@7@8@9@0@a@r.q.b@o.C.n.c@d@e@d@d@d@f@f@g@h@h@i@j@'.M.k@7@7@W.                ",
"                l@m@n@n@W.W.W.W.>+N.N.v.M.M.c.c.c.c.u.u.u.u.u.u.u.c.c.M.o@m@n@p@                ",
"                q@r@r@s@t@F+u@v@w@x@y@z@A@B@C@D@E@F@G@C@H@I@J@K@w@L@M@M.N@O@P@p@                ",
"                Q@R@S@T@U@3+V@W@V@X@W@Y@Y@Y@{+Z@`@~+~+~+~+Z@Z@Z@Z@Z@ #U@T@S@.#+#                ",
"                @###$#%#U@&#*#=#-#;#-#-#-#=#=#=#>#>#>#>#Y@>#W@Y@Y@X@V@U@%#%###q@                ",
"                ,#'#)#!#~# +'+'+'+{#`.`.`.]#]#]#]#]#^#/#/#/#/#/#/#^#'+(#_#:#<#[#                ",
"                }#k@|#1#2#3#4#4#5#6#6#6#7#7#7#7#7#6#6#V.V.V.V.V.5#5#5#8#R@9#0#r@                ",
"                a#b#c#d#e#3#3#4#5#6#6#6#f#f#f#f#f#f#f#f#f#f#7#7#7#6#V.g#h#i#$.j#                ",
"                k#l#m#n#o#p#3#U.5#V.6#f#q#q#q#q#q#q#q#q#q#f#f#f#7#7#V.r#s#8@b#t#                ",
"                u#v#J w#r o.T.3#5#V.7#f#q#q#a@a@a@a@a@a@a@x#y#z#A#7#6#B#C#D#E#F#                ",
"                G#H#I#I#n J#K#L#M#N#M#O#P#P#M#O#Q#R#R#S#S#T#U#U#S#V#W#X#7@7@Y#Z#                ",
"                `# $k@k@q J#K#.$M#+$M#O#P#P#Q#R#R#S#S#S#S#V#@$S#V##$$$}#0#0#%$G#                ",
"                &$*$=$-$;$J#K#.$O#+$M#M#N#T#T#R#T#S#@$S#>$,$#$,$'$)$)$!$~$-${$G#                ",
"                &$]$^$b#/$($_$:$O#+$M#M#<$T#T#R#[$}$S#@$|$,$$$1$'$)$$$2$3$4$5$G#                ",
"                6$7$8$8$9$b.b.g.u.c.v.0$W.W.W.W.W.W.W.W.a$W.N.v.M.c.u.2$b$b$c$d$                ",
"                e$f$g$h$/$i$j$k$l$m$n$o$n$p$p$q$m$m$l$l$r$p$n$n$n$m$l$s$t$u$v$w$                ",
"                b.x$y$z$A$B$C$D$=@Z+E$U@F$N+N+N+N+N+=@G$r$H$Z+Z+Z+`+1@2#I$J$K$O@                ",
"                b.L$M$N$A$O$C$D$=@`+E$o$E$N+N+N+N+N+Z+H$r$G$.@Z+Z+`+=@2#P$Q$R$S$                ",
"                b.T$U$V$A$@+D$4@=@ @W$o$W$N+N+N+N+N+N+E$r$H$N+Z+Z+ @=@X$Y$Z$`$r@                ",
"                b. %.%+%A$&#@%#%$%%%&%o$*%]@]@]@]@]@]@[@r$3@]@=%%%%%-%;%>%,%'%)%                ",
"                b.!%~%{%]%^%%%=%%%/%&%o$(%]@]@]@]@]@]@[@r$_%]@]@%%%%:%<%[%}%!%|%                ",
"                g.1%2%3%4%5%6%7%]@8%9%0%a%]@]@]@]@]@]@_%r$<@]@]@=%%%%%b%c%Q.d%6.                ",
"                u.e%Q.f%g%h%i%j%j%k%l%0%m%n%n%j%n%j%j%u+r$o%p%p%p%q%r%s%Z.t%Y u%                ",
"                c.Y t%v%w%G.i%j%k%x%y%0%z%n%n%n%n%n%n%A%r$B%C%C%C%C%q%D%Z.o@E%F%                ",
"                v.G%G%H%I%H.`.[+J%K%9%0%j+L%^%&#&#M%M%N%r$O%L%5%5%5%L%P%Q%H%[#F%                ",
"                N.R%S%T%U%D%V%W%0%0%0%0%0%0%0%0%0%0%0%0%0%0%0%0%b%b%b%X%Y%Y%Z%W.                ",
"                W.`%`%`% &b%.&+&@&#&$&%&&&*&x$=&=&-&L$L$;&R%>&,&'%'&V% &`%`%`%)&                ",
"                W.!&~&{&e%b%]&^&/&d+(&(&_&:&:&:&<&[&<&:&:&:&:&_&}&}&|&e%{&~&!&W.                "};
