/* XPM */
static char * wall_xpm[] = {
"48 48 7 1",
" 	c #383230",
".	c #463E3C",
"+	c #625848",
"@	c #5B4A3D",
"#	c #6A6758",
"$	c #7B7867",
"%	c #6A564A",
" .....++@++@. @. .+#$$$$##+@  @.@...+#$$+++@  @.",
". ... .@@@@. @+@..+#$$$##@+@     ...@+@++++@    ",
". .. ....  ..++@..@@##+@@@@. @. .....++@++@. @. ",
". .  @+++@.  .@@..@@@@@.... @+@. ... .@@@@. @+@.",
"    +$$+##@. ...  .@..@ ....++@. .. ....  ..++@.",
".. @$$$#####.   .. ..+#@.   .@@. .  @+++@.  .@@.",
".. +$$#++++@..  .. .@$$$$$. ...    +$$+##@. ... ",
"  .+@@+#++@@..    ..+$$$$$#.   .. @$$$#####.   .",
"   @@++++@@... .    +##+##+..  .. +$$#++++@..  .",
". .@++++@@. . ..... @+#.##@..    .+@@+#++@@..   ",
"#.  @++++@ .  .+#+@@.+@..@... .   @@++++@@... . ",
"#.. .@@@@.+#@ +####+.@.+ . . ... .@++++@@. . ...",
"#..  .. . #++.+##+@@.. @. .  .+#.  @++++@ .  .+#",
"@.    ..  @+@.@+@@@..  .@##@ +##.. .@@@@.+#@ +##",
".%@@..@@@..  .........@.++#+.+##..  .. . #++.+##",
"%%%%@...@@@...@@%%%%@.. .@+@.@+@.    ..  @+@.@+@",
" .....++@++@. @. .+#$$$.    ....%@@..@@@..  ....",
". ... .@@@@. @+@..+#$$$@@@...@@%%%%@...@@@...@@%",
". .. ....  ..++@..@@##+@@@@. @. .....++@++@. @. ",
". .  @+++@.  .@@..@@@@@.... @+@. ... .@@@@. @+@.",
"    +$$+##@. ...  .@..@ ....++@. .. ....  ..++@.",
".. @$$$#####.   .. ..+#@.   .@@. .  @+++@.  .@@.",
".. +$$#++++@..  .. .@$$$$$. ...    +$$+##@. ... ",
"  .+@@+#++@@..    ..+$$$$$#.   .. @$$$#####.   .",
"    @##+@  .@.      .+#+##+..  .. +$$#++++@..  .",
"@@. .@++. ... .@+@. .. .##@..    .+@@+#++@@..   ",
"++@. ..    . .+##+@...   ... .@@@. .@++. ... .@+",
"+@@...@++@.. @##+@     .... .+#++@. ..    . .+##",
"@@. .@$$#+@. @#+@..@+++@... @##+@@...@++@.. @##+",
"+...#$$$$##@ .@+..@###$$#@. @#+@@. .@$$#+@. @#+@",
"@...+#$$+++@  @..++$$$$$##@ .@++...#$$$$##@ .@+.",
" ...@+@++++@    .++$$$$##+@  @.@...+#$$+++@  @..",
".....++@++@. @. .+#$$$##@+@     ...@+@++++@    .",
" ... .@@@@. @+@..+#$$$@@@@. @. .....++@++@. @. .",
" .. ....  ..++@..@@##+.... @+@. ... .@@@@. @+@..",
" .  @+++@.  .@@..@@@@@ ....++@. .. ....  ..++@..",
"   +$$+##@. ...  .@..@@.   .@@. .  @+++@.  .@@..",
". @$$$#####.   .. ..+#$$$. ...    +$$+##@. ...  ",
". +$$#++++@..  .. .@$$$$$#.   .. @$$$#####.   ..",
" .+@@+#++@@..    ..+$$+##+..  .. +$$#++++@..  ..",
"  @@++++@@... .    +##.##@..    .+@@+#++@@..    ",
" .@++++@@. . ..... @+#..@... .   @@++++@@... .  ",
".  @++++@ .  .+#+@@.+@+ . . ... .@++++@@. . ....",
".. .@@@@.+#@ +####+.@.@. .  .+#.  @++++@ .  .+#+",
"..  .. . #++.+##+@@.. .@##@ +##.. .@@@@.+#@ +###",
".    ..  @+@.@+@@@..  .++#+.+##..  .. . #++.+##+",
"%@@..@@@..  .........@ .@+@.@+@.    ..  @+@.@+@@",
"%%%@...@@@...@@%%%%@...    ....%@@..@@@..  ....."};
